<svg width="70" height="36" viewBox="0 0 70 36" fill="none" xmlns="http://www.w3.org/2000/svg">
<mask id="mask0" mask-type="alpha" maskUnits="userSpaceOnUse" x="0" y="0" width="70" height="36">
<rect x="70" y="35.5" width="70" height="35" rx="17.5" transform="rotate(180 70 35.5)" fill="#FF002E"/>
</mask>
<g mask="url(#mask0)">
<rect x="70" y="35.5" width="70" height="35" rx="17.5" transform="rotate(180 70 35.5)" fill="url(#paint0_linear)"/>
<circle cx="17.5" cy="18.2293" r="13.8158" transform="rotate(180 17.5 18.2293)" fill="white"/>
<path d="M38.3158 26.224C38.3158 27.4951 39.3474 28.5267 40.6184 28.5267H54.2684C55.5395 28.5267 56.5711 27.4951 56.5711 26.224C56.5711 24.953 55.5395 23.9214 54.2684 23.9214C53.8079 23.9214 53.3842 24.0503 53.0158 24.2898C52.7026 22.9451 51.5053 21.9503 50.0684 21.9503C49.3868 21.9503 48.7605 22.1714 48.2632 22.5582C47.729 21.3056 46.4947 20.4398 45.0395 20.4398C43.1053 20.4398 41.5395 22.0056 41.5395 23.9398C41.5395 24.0135 41.5395 24.0688 41.5395 24.1424C41.2632 24.0135 40.95 23.9398 40.6184 23.9398C39.3474 23.9398 38.3158 24.9714 38.3158 26.224Z" fill="white"/>
<path d="M52.1869 10.695C52.1869 11.3029 52.6843 11.8003 53.2922 11.8003H59.8685C60.4764 11.8003 60.9737 11.3029 60.9737 10.695C60.9737 10.0871 60.4764 9.58977 59.8685 9.58977C59.6474 9.58977 59.4448 9.66345 59.2606 9.77398C59.1132 9.12924 58.5237 8.65029 57.8422 8.65029C57.5106 8.65029 57.2158 8.76082 56.9764 8.94503C56.7185 8.33714 56.1106 7.91345 55.4106 7.91345C54.4711 7.91345 53.7343 8.66872 53.7343 9.58977C53.7343 9.62661 53.7343 9.64503 53.7343 9.68187C53.6053 9.62661 53.4395 9.58977 53.2922 9.58977C52.6658 9.58977 52.1869 10.0871 52.1869 10.695Z" fill="white"/>
</g>
<defs>
<linearGradient id="paint0_linear" x1="70" y1="53" x2="140" y2="53" gradientUnits="userSpaceOnUse">
<stop stop-color="#4593E6"/>
<stop offset="1" stop-color="#2EDFF7"/>
</linearGradient>
</defs>
</svg>
